<svg id="Layer_1" data-name="Layer 1" xmlns="http://www.w3.org/2000/svg" viewBox="0 0 198.75 244.36"><defs><style>.cls-1{fill:#fff;}.cls-2,.cls-3{fill:#231f20;}.cls-3{stroke:#231f20;stroke-miterlimit:10;stroke-width:0.5px;}</style></defs><title>CF_logo_v10</title><polygon class="cls-1" points="198.75 132.65 198.75 0 0 0 0 132.65 99.38 244.36 198.75 132.65 198.75 132.65"/><path class="cls-2" d="M201,216.53H186q-15,0-23.84-11.9T153.34,175a56.51,56.51,0,0,1,3.79-20.66,34.18,34.18,0,0,1,11.76-15.59,30.07,30.07,0,0,1,18.23-5.83H201v17l-11.15,0q-7.2,0-11.38,6.62t-4.18,19.16q0,10.74,4.18,17.21t11.06,6.47l11.47-.06Z" transform="translate(-106.95 -91.85)"/><path class="cls-3" d="M201.21,164.29h50.92V181.6H222.51v17.86h29.62v16.76H222.51V263h-21.3Z" transform="translate(-106.95 -91.85)"/></svg>